<svg width="28" height="28" viewBox="0 0 28 28" fill="none" xmlns="http://www.w3.org/2000/svg">
<path d="M5.93831 27.4167H8.74998V24.5H8.02081C5.67581 24.5 4.63164 27.4167 5.93831 27.4167Z" fill="#D0D5DD"/>
<path d="M20.5041 21.886L16.4733 20.3343C16.1142 20.1965 15.7948 19.9721 15.5434 19.681C15.292 19.3899 15.1165 19.0412 15.0324 18.6659C12.6991 18.9518 10.5291 18.3568 10.2199 16.1868L9.91659 14.0809C9.90587 14.0043 9.91034 13.9264 9.92974 13.8515C9.94915 13.7766 9.98312 13.7063 10.0297 13.6445C10.1238 13.5198 10.2635 13.4376 10.4183 13.4159C10.573 13.3943 10.7299 13.435 10.8547 13.5291C10.9794 13.6231 11.0616 13.7629 11.0833 13.9176L11.3808 16.0001C11.7891 18.8526 17.9141 17.0268 19.3491 16.0759L18.0833 13.5034L14.5833 13.9993C14.3791 13.9993 14.4724 14.2734 14.2158 12.2143C14.1422 11.619 13.9169 11.0525 13.5614 10.5694C13.2059 10.0862 12.7322 9.70252 12.1858 9.45511L11.0833 8.94761C10.8639 8.84236 10.625 8.784 10.3818 8.77627C10.1386 8.76855 9.89645 8.81162 9.67083 8.90274C9.44522 8.99387 9.24109 9.13104 9.07148 9.30549C8.90186 9.47995 8.77049 9.68786 8.68576 9.91595C8.03826 11.6659 8.16659 11.7184 8.16659 21.5826C8.16659 22.4576 8.60993 23.3326 9.49076 23.3326H15.7499C15.9046 23.3326 16.053 23.3941 16.1624 23.5035C16.2718 23.6129 16.3333 23.7612 16.3333 23.9159C16.3333 24.0707 16.2718 24.219 16.1624 24.3284C16.053 24.4378 15.9046 24.4993 15.7499 24.4993H9.91659V27.4159H20.9999C21.4641 27.4159 21.9092 27.2316 22.2374 26.9034C22.5656 26.5752 22.7499 26.1301 22.7499 25.6659V25.1526C22.7497 24.4449 22.535 23.7539 22.1341 23.1707C21.7331 22.5875 21.1648 22.1395 20.5041 21.886Z" fill="#D0D5DD"/>
<path d="M10.3832 4.26952C15.9832 1.77285 15.4699 2.05285 15.394 1.93618C15.0808 1.42039 14.6078 1.02095 14.0469 0.798555C13.4859 0.576161 12.8677 0.542974 12.2861 0.704038C11.7046 0.865102 11.1915 1.21161 10.8249 1.69091C10.4582 2.1702 10.2581 2.75609 10.2549 3.35952C10.2648 3.66658 10.3079 3.97167 10.3832 4.26952Z" fill="#D0D5DD"/>
<path d="M11.0833 6.51499L10.78 7.65249C11.5423 7.85342 12.2769 8.14729 12.9675 8.52749C13.2183 7.58249 13.2358 7.66999 13.1775 7.64082C13.4675 7.72453 13.7641 7.78308 14.0642 7.81582C14.3505 7.83811 14.6349 7.75403 14.8631 7.57967C15.0913 7.40531 15.2471 7.15292 15.3008 6.87082C15.5983 5.24915 16.3333 5.14415 15.8958 3.09082L10.5 5.49415C10.5 6.04832 10.5 6.04249 11.0833 6.51499Z" fill="#D0D5DD"/>
<path d="M21.0002 12.25L19.186 13.1542L20.306 15.3942C20.5619 15.2368 20.7835 15.0295 20.9576 14.7847C21.1317 14.5399 21.2548 14.2626 21.3196 13.9692C21.3844 13.6759 21.3895 13.3725 21.3346 13.0772C21.2797 12.7818 21.166 12.5005 21.0002 12.25Z" fill="#D0D5DD"/>
</svg>
