<svg width="27" height="27" viewBox="0 0 27 27" fill="none" xmlns="http://www.w3.org/2000/svg">
<path d="M13.1836 24.457C12.9141 24.457 12.6445 24.4453 12.375 24.4219L11.7422 25.6172C11.5547 25.9453 11.2617 26.1094 10.8867 26.0391C10.5352 25.9688 10.2891 25.7227 10.2422 25.3477L10.0547 24.0234C9.52734 23.8711 9.02344 23.6836 8.54297 23.4609L7.53516 24.3633C7.25391 24.6094 6.91406 24.6562 6.58594 24.4688C6.26953 24.2812 6.14062 23.9648 6.21094 23.6016L6.49219 22.2891C6.05859 21.9727 5.63672 21.6328 5.25 21.2461L4.00781 21.75C3.65625 21.8906 3.32812 21.8203 3.08203 21.5273C2.84766 21.2461 2.82422 20.8945 3.02344 20.5781L3.73828 19.4531C3.43359 18.9961 3.16406 18.5273 2.92969 18.0469L1.59375 18.082C1.20703 18.0938 0.925781 17.918 0.796875 17.5664C0.679688 17.2148 0.761719 16.875 1.06641 16.6523L2.12109 15.832C1.99219 15.3047 1.89844 14.7773 1.83984 14.2266L0.5625 13.8164C0.199219 13.6992 0 13.418 0 13.0547C0 12.6797 0.199219 12.3984 0.5625 12.293L1.83984 11.8828C1.89844 11.332 1.99219 10.8047 2.12109 10.2773L1.06641 9.45703C0.761719 9.22266 0.667969 8.89453 0.796875 8.55469C0.925781 8.20312 1.20703 8.00391 1.59375 8.01562L2.92969 8.07422C3.16406 7.58203 3.43359 7.11328 3.73828 6.66797L3.02344 5.53125C2.82422 5.21484 2.83594 4.86328 3.08203 4.58203C3.32812 4.30078 3.65625 4.20703 4.00781 4.35938L5.25 4.86328C5.63672 4.48828 6.04688 4.13672 6.49219 3.82031L6.21094 2.50781C6.14062 2.14453 6.25781 1.81641 6.58594 1.64062C6.91406 1.46484 7.26562 1.48828 7.53516 1.74609L8.51953 2.63672C9.02344 2.42578 9.51562 2.23828 10.043 2.08594L10.2422 0.75C10.3008 0.386719 10.5234 0.128906 10.8984 0.0703125C11.2617 0.0117188 11.5664 0.164062 11.7422 0.492188L12.375 1.6875C12.6445 1.66406 12.9141 1.65234 13.1836 1.65234C13.4531 1.65234 13.7227 1.66406 13.9922 1.6875L14.625 0.492188C14.8008 0.164062 15.1055 0 15.4688 0.0703125C15.832 0.140625 16.0664 0.386719 16.125 0.761719L16.3008 2.08594C16.8281 2.23828 17.3438 2.41406 17.8242 2.63672L18.832 1.74609C19.1016 1.5 19.4531 1.44141 19.7812 1.64062C20.0977 1.82812 20.2266 2.13281 20.1562 2.50781L19.8633 3.80859C20.3086 4.125 20.7305 4.47656 21.1172 4.86328L22.3594 4.35938C22.6992 4.21875 23.0391 4.28906 23.2852 4.58203C23.5078 4.86328 23.543 5.21484 23.3438 5.53125L22.6289 6.65625C22.9219 7.10156 23.2031 7.57031 23.4375 8.0625L24.7734 8.02734C25.1484 8.01562 25.4414 8.17969 25.5703 8.54297C25.6875 8.89453 25.6055 9.23438 25.3008 9.45703L24.2344 10.2773C24.375 10.793 24.4688 11.332 24.5273 11.8828L25.8047 12.293C26.1562 12.3984 26.3672 12.6797 26.3672 13.0547C26.3672 13.418 26.1562 13.6992 25.8047 13.8164L24.5273 14.2266C24.4688 14.7773 24.375 15.3047 24.2344 15.832L25.3008 16.6523C25.6055 16.8867 25.6992 17.2148 25.5703 17.5547C25.4414 17.9062 25.1484 18.1055 24.7734 18.0938L23.4375 18.0352C23.2031 18.5273 22.9219 18.9961 22.6289 19.4414L23.3438 20.5781C23.543 20.8945 23.5312 21.2461 23.2852 21.5273C23.0391 21.8086 22.7109 21.8906 22.3477 21.75L21.1172 21.2461C20.7305 21.6211 20.3203 21.9727 19.8633 22.2773L20.1445 23.6016C20.2266 23.9648 20.0977 24.2812 19.7695 24.4688C19.4531 24.6445 19.1016 24.6211 18.832 24.3633L17.8359 23.4609C17.3438 23.6836 16.8398 23.8711 16.3125 24.0234L16.1133 25.3477C16.0664 25.7227 15.8438 25.9805 15.4688 26.0391C15.1055 26.0859 14.8008 25.9453 14.625 25.6172L13.9922 24.4219C13.7227 24.4453 13.4531 24.457 13.1836 24.457ZM13.1836 9.78516C14.6484 9.78516 15.8906 10.7461 16.3125 12.082H22.2656C21.7852 7.48828 17.9062 3.91406 13.1836 3.91406C11.8359 3.91406 10.5586 4.20703 9.39844 4.73438L12.3984 9.87891C12.6562 9.82031 12.9141 9.78516 13.1836 9.78516ZM4.04297 13.0547C4.04297 16.0312 5.46094 18.668 7.66406 20.3438L10.7695 15.2578C10.2422 14.6719 9.91406 13.8984 9.91406 13.0547C9.91406 12.2109 10.2422 11.4492 10.7578 10.8633L7.74609 5.70703C5.49609 7.37109 4.04297 10.043 4.04297 13.0547ZM13.1836 14.3789C13.9219 14.3789 14.5078 13.7812 14.5078 13.0547C14.5078 12.3164 13.9219 11.7305 13.1836 11.7305C12.457 11.7305 11.8594 12.3164 11.8594 13.0547C11.8594 13.7812 12.457 14.3789 13.1836 14.3789ZM13.1836 22.1953C17.918 22.1953 21.7969 18.5977 22.2773 13.9922H16.3242C15.9141 15.3398 14.6602 16.3242 13.1836 16.3242C12.9141 16.3242 12.6562 16.2891 12.4102 16.2305L9.30469 21.3281C10.4883 21.8789 11.8008 22.1953 13.1836 22.1953Z" fill="white"/>
</svg>
