<svg width="28" height="28" viewBox="0 0 28 28" fill="none" xmlns="http://www.w3.org/2000/svg">
<path fill-rule="evenodd" clip-rule="evenodd" d="M3.06687 6.61645L13.5669 2.41645C13.7059 2.36082 13.853 2.33301 14.0002 2.33301C14.1473 2.33301 14.2944 2.36082 14.4335 2.41645L24.9335 6.61645C25.3764 6.79363 25.6668 7.22261 25.6668 7.69967V11.6663L14.0002 6.99966L2.3335 11.6663V7.69967C2.3335 7.22262 2.62394 6.79363 3.06687 6.61645ZM14.0002 9.333L2.3335 13.9997V24.4997C2.3335 25.144 2.85584 25.6663 3.50016 25.6663H5.8335V19.5773C5.8335 19.0419 6.19785 18.5752 6.7172 18.4454L9.05053 17.862C9.78688 17.6779 10.5002 18.2349 10.5002 18.9939V25.6663H24.5002C25.1445 25.6663 25.6668 25.144 25.6668 24.4997V13.9997L14.0002 9.333Z" fill="#D0D5DD"/>
</svg>
