<svg width="294" height="225" viewBox="0 0 294 225" fill="none" xmlns="http://www.w3.org/2000/svg">
<g opacity="0.15" filter="url(#filter0_d_3422_6275)">
<path d="M147.029 171C187.075 171 219.539 163.055 219.539 153.255C219.539 143.455 187.075 135.51 147.029 135.51C106.982 135.51 74.5186 143.455 74.5186 153.255C74.5186 163.055 106.982 171 147.029 171Z" fill="#042030"/>
</g>
<g filter="url(#filter1_d_3422_6275)">
<path d="M203.816 67.6172L147.029 88.0272L90.1841 67.6172L63 109.164L147.029 139.386L231 109.164L203.816 67.6172Z" fill="#455EB5"/>
<path opacity="0.45" d="M72.9062 107.469L142.594 135.51L118.635 110.557C118.635 110.557 79.2991 100.564 72.9062 107.469Z" fill="#240F4F"/>
<path opacity="0.45" d="M221.151 107.469L151.463 135.51L175.422 110.557C175.365 110.557 214.701 100.564 221.151 107.469Z" fill="#240F4F"/>
<path d="M147.029 139.385L63 109.164V113.101L147.029 143.322L231 113.101V109.164L147.029 139.385Z" fill="#0D2168"/>
<g filter="url(#filter2_d_3422_6275)">
<path d="M102.279 157.554L112.012 130.725L143.343 141.99L102.279 157.554Z" fill="#0B2062"/>
<path opacity="0.45" d="M104.986 149.802L143.343 141.99L112.012 130.725L104.986 149.802Z" fill="#0B2062"/>
<path d="M147.029 140.597L102.279 157.555L105.619 161.249L147.029 145.745L188.381 161.249L191.779 157.555L147.029 140.597Z" fill="#0D2168"/>
<path d="M191.779 157.554L181.988 130.725L150.657 141.99L191.779 157.554Z" fill="#0B2062"/>
<path opacity="0.45" d="M189.014 149.802L150.657 141.99L181.988 130.725L189.014 149.802Z" fill="#0B2062"/>
</g>
<path d="M147.029 145.745C148.715 145.745 150.081 144.308 150.081 142.535C150.081 140.762 148.715 139.325 147.029 139.325C145.343 139.325 143.977 140.762 143.977 142.535C143.977 144.308 145.343 145.745 147.029 145.745Z" fill="white" fill-opacity="0.5"/>
<path d="M201.397 67.6172L147.029 96.0823L92.6607 67.6172C90.1842 71.0693 70.2568 106.015 70.2568 106.015C70.4872 106.015 70.66 106.075 70.8904 106.075C120.881 111.344 134.761 127.878 139.369 131.876C143.976 135.933 147.086 135.509 147.086 135.509C147.086 135.509 150.197 135.933 154.804 131.876C159.411 127.878 173.291 111.344 223.283 106.075C223.513 106.075 223.686 106.015 223.916 106.015C223.801 106.015 203.816 71.1299 201.397 67.6172Z" fill="#F5B304"/>
<path d="M223.801 106.015C223.57 106.015 223.398 106.075 223.167 106.075C173.176 111.344 159.296 127.878 154.689 131.875C150.081 135.933 146.971 135.509 146.971 135.509C146.971 135.509 143.861 135.933 139.254 131.875C134.646 127.878 120.766 111.344 70.7751 106.075C70.5447 106.075 70.372 106.015 70.1416 106.015C69.7384 106.681 70.1416 107.165 70.1416 107.165C120.651 112.313 134.07 128.908 138.678 132.966C143.285 136.963 146.914 136.66 146.914 136.66C146.914 136.66 150.542 136.963 155.149 132.966C159.757 128.968 173.176 112.374 223.686 107.165C223.801 107.165 224.204 106.681 223.801 106.015Z" fill="#0D2168"/>
<path d="M199.324 64.2862C171.506 57.2608 146.971 81.3047 146.971 81.3047C146.971 81.3047 122.436 57.2608 94.6187 64.2862C94.6187 64.2862 86.7284 77.0047 75.8433 98.626C75.8433 98.626 130.615 105.106 146.971 129.271C163.328 105.106 218.099 98.626 218.099 98.626C207.214 77.0047 199.324 64.2862 199.324 64.2862Z" fill="#C2F0FF"/>
<path d="M218.099 98.626C218.099 98.626 163.328 105.106 146.971 129.271C130.672 105.106 75.9011 98.626 75.9011 98.626C75.9011 98.626 75.9011 100.564 72.8486 104.38C72.8486 104.38 122.552 108.135 140.636 129.816C144.898 134.904 146.971 134.298 146.971 134.298C146.971 134.298 149.102 134.904 153.307 129.816C171.333 108.135 221.094 104.38 221.094 104.38C218.099 100.503 218.099 98.626 218.099 98.626Z" fill="#A7E9FF"/>
<path d="M196.214 66.8299C196.214 66.8299 175.423 61.258 146.971 84.4541C118.578 61.3186 97.7291 66.8299 97.7291 66.8299L83.6763 95.5373C126.411 98.626 146.971 121.338 146.971 121.338C146.971 121.338 167.532 98.626 210.267 95.5373L196.214 66.8299ZM147.029 118.612C147.029 118.612 127.793 97.8993 87.0167 93.8415L98.8233 68.0412C98.8233 68.0412 119.269 63.8623 147.029 85.7865C174.789 63.8623 195.235 68.0412 195.235 68.0412L207.041 93.8415C166.265 97.8993 147.029 118.612 147.029 118.612Z" fill="#455EB5"/>
<path opacity="0.2" d="M152.27 106.072C159.949 100.116 183.946 86.9375 200.073 88.7544" stroke="#455EB5" stroke-width="3" stroke-linecap="round"/>
<path opacity="0.2" d="M152.27 89.3599C159.085 83.7484 176.805 72.7538 193.161 73.6668" stroke="#455EB5" stroke-width="3" stroke-linecap="round"/>
<path opacity="0.2" d="M152.27 97.8388C159.661 91.7957 178.878 79.9552 196.617 80.9385" stroke="#455EB5" stroke-width="3" stroke-linecap="round"/>
<path opacity="0.2" d="M142.479 106.072C134.8 100.116 110.803 86.9375 94.6765 88.7544" stroke="#455EB5" stroke-width="3" stroke-linecap="round"/>
<path opacity="0.2" d="M142.479 89.3599C135.664 83.7484 117.944 72.7538 101.588 73.6668" stroke="#455EB5" stroke-width="3" stroke-linecap="round"/>
<path opacity="0.2" d="M142.479 97.8388C135.088 91.7957 115.871 79.9552 98.1321 80.9385" stroke="#455EB5" stroke-width="3" stroke-linecap="round"/>
<path d="M147.029 81.3046C147.029 81.3046 147.605 79.1848 148.699 79.7905C148.699 79.7905 148.008 114.13 149.16 127.515C149.448 130.846 152.212 135.388 153.307 137.084H151.867L151.464 138.477C151.464 138.477 147.202 130.906 147.029 127.939C146.165 114.615 146.626 84.5145 147.029 81.3046Z" fill="#54DAF5"/>
</g>
<defs>
<filter id="filter0_d_3422_6275" x="57.5186" y="122.51" width="179.02" height="69.4902" filterUnits="userSpaceOnUse" color-interpolation-filters="sRGB">
<feFlood flood-opacity="0" result="BackgroundImageFix"/>
<feColorMatrix in="SourceAlpha" type="matrix" values="0 0 0 0 0 0 0 0 0 0 0 0 0 0 0 0 0 0 127 0" result="hardAlpha"/>
<feOffset dy="4"/>
<feGaussianBlur stdDeviation="8.5"/>
<feComposite in2="hardAlpha" operator="out"/>
<feColorMatrix type="matrix" values="0 0 0 0 0 0 0 0 0 0 0 0 0 0 0 0 0 0 0.85 0"/>
<feBlend mode="normal" in2="BackgroundImageFix" result="effect1_dropShadow_3422_6275"/>
<feBlend mode="normal" in="SourceGraphic" in2="effect1_dropShadow_3422_6275" result="shape"/>
</filter>
<filter id="filter1_d_3422_6275" x="0" y="0" width="294" height="224.249" filterUnits="userSpaceOnUse" color-interpolation-filters="sRGB">
<feFlood flood-opacity="0" result="BackgroundImageFix"/>
<feColorMatrix in="SourceAlpha" type="matrix" values="0 0 0 0 0 0 0 0 0 0 0 0 0 0 0 0 0 0 127 0" result="hardAlpha"/>
<feOffset/>
<feGaussianBlur stdDeviation="31.5"/>
<feComposite in2="hardAlpha" operator="out"/>
<feColorMatrix type="matrix" values="0 0 0 0 0.396078 0 0 0 0 0.839216 0 0 0 0 0.988235 0 0 0 1 0"/>
<feBlend mode="normal" in2="BackgroundImageFix" result="effect1_dropShadow_3422_6275"/>
<feBlend mode="normal" in="SourceGraphic" in2="effect1_dropShadow_3422_6275" result="shape"/>
</filter>
<filter id="filter2_d_3422_6275" x="87.2788" y="119.725" width="119.5" height="60.5244" filterUnits="userSpaceOnUse" color-interpolation-filters="sRGB">
<feFlood flood-opacity="0" result="BackgroundImageFix"/>
<feColorMatrix in="SourceAlpha" type="matrix" values="0 0 0 0 0 0 0 0 0 0 0 0 0 0 0 0 0 0 127 0" result="hardAlpha"/>
<feOffset dy="4"/>
<feGaussianBlur stdDeviation="7.5"/>
<feComposite in2="hardAlpha" operator="out"/>
<feColorMatrix type="matrix" values="0 0 0 0 0 0 0 0 0 0 0 0 0 0 0 0 0 0 0.49 0"/>
<feBlend mode="normal" in2="BackgroundImageFix" result="effect1_dropShadow_3422_6275"/>
<feBlend mode="normal" in="SourceGraphic" in2="effect1_dropShadow_3422_6275" result="shape"/>
</filter>
</defs>
</svg>
