<svg xmlns="http://www.w3.org/2000/svg" xmlns:xlink="http://www.w3.org/1999/xlink" width="1920" zoomAndPan="magnify" viewBox="0 0 1440 449.999984" height="600" preserveAspectRatio="xMidYMid meet" version="1.0"><defs><g/><clipPath id="4b14964fff"><rect x="0" width="1440" y="0" height="279"/></clipPath></defs><g transform="matrix(1, 0, 0, 1, 0, 84)"><g clip-path="url(#4b14964fff)"><g fill="#000000" fill-opacity="1"><g transform="translate(0.0119343, 250.040775)"><g><path d="M 97.84375 0 L 97.84375 -144.546875 L 24.734375 -144.546875 L 24.734375 -193.484375 L 180.96875 -193.484375 L 180.96875 -144.546875 L 107.859375 -144.546875 L 107.859375 0 Z M 97.84375 0 "/></g></g></g><g fill="#000000" fill-opacity="1"><g transform="translate(205.721699, 250.040775)"><g><path d="M 194.03125 0 L 11.671875 0 L 102.859375 -197.640625 Z M 27.796875 -10.28125 L 177.90625 -10.28125 L 102.859375 -173.1875 Z M 27.796875 -10.28125 "/></g></g></g><g fill="#000000" fill-opacity="1"><g transform="translate(411.431464, 250.040775)"><g><path d="M 105.640625 -112.859375 L 186.25 0 L 30.578125 0 L 30.578125 -193.484375 L 186.25 -193.484375 Z M 98.40625 -105.640625 L 40.859375 -48.09375 L 40.859375 -10.28125 L 166.515625 -10.28125 Z M 98.40625 -105.640625 "/></g></g></g><g fill="#000000" fill-opacity="1"><g transform="translate(617.141251, 250.040775)"><g><path d="M 11.671875 -193.75 L 194.03125 -193.75 L 102.859375 3.890625 Z M 102.859375 -20.578125 L 178.1875 -183.46875 L 27.796875 -183.46875 Z M 102.859375 -20.578125 "/></g></g></g><g fill="#000000" fill-opacity="1"><g transform="translate(822.850993, 250.040775)"><g><path d="M 194.03125 0 L 11.671875 0 L 102.859375 -197.640625 Z M 27.796875 -10.28125 L 177.90625 -10.28125 L 102.859375 -173.1875 Z M 27.796875 -10.28125 "/></g></g></g><g fill="#000000" fill-opacity="1"><g transform="translate(1028.560735, 250.040775)"><g><path d="M 38.640625 0 L 38.640625 -193.484375 L 119.53125 -193.484375 C 133.0625 -193.484375 144.738281 -190.976562 154.5625 -185.96875 C 165.863281 -180.226562 174.847656 -172.03125 181.515625 -161.375 C 188.191406 -150.71875 191.53125 -138.992188 191.53125 -126.203125 C 191.53125 -113.421875 188.238281 -101.65625 181.65625 -90.90625 C 175.082031 -80.15625 166.144531 -71.90625 154.84375 -66.15625 C 145.195312 -61.15625 133.425781 -58.65625 119.53125 -58.65625 L 89.234375 -58.65625 L 89.234375 0 Z M 38.640625 0 "/></g></g></g><g fill="#000000" fill-opacity="1"><g transform="translate(1234.270569, 250.040775)"><g><path d="M 38.640625 0 L 38.640625 -193.484375 L 119.53125 -193.484375 C 133.0625 -193.484375 144.738281 -190.976562 154.5625 -185.96875 C 165.863281 -180.226562 174.847656 -172.03125 181.515625 -161.375 C 188.191406 -150.71875 191.53125 -138.992188 191.53125 -126.203125 C 191.53125 -113.421875 188.238281 -101.65625 181.65625 -90.90625 C 175.082031 -80.15625 166.144531 -71.90625 154.84375 -66.15625 C 145.195312 -61.15625 133.425781 -58.65625 119.53125 -58.65625 L 89.234375 -58.65625 L 89.234375 0 Z M 38.640625 0 "/></g></g></g></g></g></svg>